<?xml version="1.0" standalone="no"?>
<!DOCTYPE svg PUBLIC "-//W3C//DTD SVG 20010904//EN"
 "http://www.w3.org/TR/2001/REC-SVG-20010904/DTD/svg10.dtd">
<svg version="1.0" xmlns="http://www.w3.org/2000/svg"
 width="700.000000pt" height="700.000000pt" viewBox="0 0 700.000000 700.000000"
 preserveAspectRatio="xMidYMid meet">
<metadata>
Created by potrace 1.11, written by Peter Selinger 2001-2013
</metadata>
<g transform="translate(0.000000,700.000000) scale(0.100000,-0.100000)"
fill="#000000" stroke="none">
<path d="M3378 6645 c-2 -1 -54 -5 -116 -9 -62 -4 -118 -9 -125 -11 -7 -2 -36
-6 -65 -9 -292 -32 -689 -155 -982 -304 -238 -121 -410 -236 -635 -422 -39
-33 -312 -305 -350 -350 -158 -185 -308 -415 -424 -650 -71 -143 -85 -176
-146 -347 -37 -101 -81 -249 -90 -302 -3 -19 -8 -37 -10 -41 -2 -4 -7 -22 -10
-41 -3 -19 -8 -41 -10 -49 -12 -39 -45 -297 -51 -395 -22 -333 10 -692 87
-980 6 -22 14 -58 19 -80 5 -22 23 -82 40 -133 224 -675 657 -1246 1245 -1639
385 -257 854 -436 1305 -499 103 -14 304 -27 420 -27 99 -1 330 10 365 17 11
2 47 7 80 12 33 4 62 8 65 9 3 0 28 4 55 9 115 18 309 68 459 118 936 315
1657 1036 1978 1978 62 184 114 407 134 575 4 28 8 52 9 55 7 12 19 251 19
375 1 142 -7 268 -24 385 -6 41 -13 90 -15 109 -2 18 -7 41 -9 50 -3 9 -8 32
-11 51 -36 217 -154 561 -274 800 -94 186 -254 437 -379 593 -46 58 -308 323
-368 372 -26 22 -62 53 -78 69 -171 160 -575 395 -869 505 -249 94 -539 165
-762 186 -33 3 -82 8 -110 11 -52 6 -361 14 -367 9z"/>
</g>
</svg>
