<svg id="Layer_1" height="512" viewBox="0 0 128 128" width="512" xmlns="http://www.w3.org/2000/svg" data-name="Layer 1"><path d="m121.5 64a57.5 57.5 0 1 1 -57.5-57.5 57.742 57.742 0 0 1 57.5 57.5z" fill="#d75a4a"/><g fill="#bc4f41"><path d="m58.54 119.66c-.2.51-.44 1.02-.69 1.51a57.528 57.528 0 0 1 -49.24-41.68c4.93-4.57 10.01-8.99 15.08-13.39 1.57-1.36 3.27-2.78 5.33-3.03 2.64-.31 5.14 1.45 6.62 3.66s2.16 4.83 3.06 7.32a43.539 43.539 0 0 0 10.09 15.93c2.25 2.25 4.77 4.28 6.63 6.87a24.377 24.377 0 0 1 3.9 9.9 23.681 23.681 0 0 1 -.78 12.91z"/><path d="m100 19.17c-.84.5-1.67 1.01-2.5 1.53-5.53 3.48-10.82 7.44-16.99 9.67-9.41 3.4-20.06 2.42-29.55-.76-7.9-2.65-15.16-6.73-22.26-11a57.491 57.491 0 0 1 71.3.56z"/><circle cx="80" cy="89.244" r="8.846"/><circle cx="80" cy="53.484" r="6"/><circle cx="46.979" cy="44.125" r="6"/><circle cx="54.757" cy="68.464" r="6"/></g><path d="m31.249 82.933a1.75 1.75 0 0 1 -1.723-1.456 4.256 4.256 0 0 0 -4.903-3.477 1.75 1.75 0 0 1 -.588-3.451 7.757 7.757 0 0 1 8.941 6.34 1.751 1.751 0 0 1 -1.727 2.044z" fill="#d75a4a"/><path d="m70.773 25.465a7.7 7.7 0 0 1 -4.283-1.3 1.75 1.75 0 1 1 1.942-2.912 4.25 4.25 0 0 0 5.893-1.178 1.75 1.75 0 1 1 2.912 1.941 7.7 7.7 0 0 1 -4.928 3.3 7.85 7.85 0 0 1 -1.536.149z" fill="#d75a4a"/><path d="m121.5 64a57.466 57.466 0 0 1 -29.8 50.4c3.89-5.17 7.56-11.27 8.44-16.75 2.04-12.65-9.56-26.15-4.5-35.19 4.11-7.34 15.04-8.15 25.03-8.21a57.021 57.021 0 0 1 .83 9.75z" fill="#bc4f41"/><path d="m27.04 50.125a1.737 1.737 0 0 1 -.793-.191c-.184-.094-4.542-2.32-7.593-4.353a1.75 1.75 0 1 1 1.946-2.912c2.881 1.921 7.2 4.124 7.24 4.147a1.75 1.75 0 0 1 -.8 3.309z" fill="#bc4f41"/><path d="m109.23 28.48c-6.41 5.25-16.42 10.66-16.84 10.89a1.764 1.764 0 0 1 -.83.21 1.75 1.75 0 0 1 -.83-3.29c.1-.05 10.11-5.46 16.25-10.48.78.87 1.52 1.76 2.25 2.67z" fill="#bc4f41"/><path d="m19.72 27.32a1.059 1.059 0 0 1 .12.1c4.45 4.29 13.58 8.71 13.67 8.75a1.751 1.751 0 0 1 -.76 3.33 1.866 1.866 0 0 1 -.76-.17c-.39-.19-9.53-4.62-14.43-9.25z" fill="#bc4f41"/><path d="m121.49 63.18a.09.09 0 0 1 -.05.01c-4.48 0-9.73 1.31-10.77 2.16a1.722 1.722 0 0 1 -1.11.4 1.75 1.75 0 0 1 -1.11-3.1c2.05-1.69 8.46-2.94 12.89-2.96.09 1.15.14 2.31.15 3.49z" fill="#d75a4a"/></svg>